#!OML:ASF F:\VICON\USERDATA\INSTALL\rory3\rory3.ASF
:FULLY-SPECIFIED
:DEGREES
563
root 2.82939 9.76261 -4.55227 -18.7074 -49.0868 2.42014
lowerback 27.8624 1.70526 -4.7693
upperback 12.1945 0.363498 0.117326
thorax -1.76857 -0.278978 2.76279
lowerneck -14.0147 -5.38941 -12.982
upperneck 27.0271 -5.02083 1.73702
head 11.5825 -3.46013 2.08869
rclavicle -4.30866e-014 2.40529e-014
rhumerus -23.8997 20.518 -86.9781
rradius 93.7364
rwrist 39.7449
rhand -43.2324 15.7708
rfingers 7.12502
rthumb -16.0822 -13.5818
lclavicle -4.30866e-014 2.40529e-014
lhumerus -24.2637 -24.8439 85.085
lradius 93.077
lwrist -23.0767
lhand -33.9468 10.5431
lfingers 7.12502
lthumb -7.12817 40.4031
rfemur -79.217 -13.2187 22.6964
rtibia 101.433
rfoot -0.989537 2.38928
rtoes 13.5398
lfemur -77.5102 13.3842 -19.2611
ltibia 99.8825
lfoot -2.17083 -10.5414
ltoes -6.11085
564
root 2.83195 9.7609 -4.5545 -18.8536 -49.0742 2.51241
lowerback 27.8995 1.74233 -4.70224
upperback 12.2456 0.423865 0.132988
thorax -1.73339 -0.250047 2.72423
lowerneck -14.0344 -5.23399 -13.0132
upperneck 27.1432 -4.80087 1.77504
head 11.6143 -3.36487 2.14104
rclavicle 2.33572e-014 -8.34896e-015
rhumerus -23.8937 20.3166 -86.8275
rradius 93.8364
rwrist 39.5775
rhand -43.1331 15.977
rfingers 7.12502
rthumb -15.9866 -13.3834
lclavicle 2.33572e-014 -8.34896e-015
lhumerus -24.1517 -24.9579 85.1285
lradius 93.0207
lwrist -22.8917
lhand -34.0372 10.4404
lfingers 7.12502
lthumb -7.21549 40.2974
rfemur -79.1557 -13.2657 22.6409
rtibia 101.41
rfoot -0.967211 2.44906
rtoes 13.442
lfemur -77.4492 13.4247 -19.3242
ltibia 99.8679
lfoot -2.12454 -10.6322
ltoes -6.0597
565
root 2.83495 9.75857 -4.55731 -18.8694 -49.1247 2.44433
lowerback 27.9286 1.75858 -4.54895
upperback 12.2948 0.479246 0.15196
thorax -1.69682 -0.220519 2.64138
lowerneck -14.0882 -5.05699 -13.1215
upperneck 27.2905 -4.59493 2.05907
head 11.6724 -3.25491 2.29587
rclavicle 1.34677e-014 5.56597e-015
rhumerus -23.8896 20.2105 -86.7834
rradius 93.9749
rwrist 39.491
rhand -43.1405 15.7578
rfingers 7.12502
rthumb -15.9937 -13.6019
lclavicle 1.34677e-014 5.56597e-015
lhumerus -24.0343 -24.9856 85.1081
lradius 92.8928
lwrist -22.8982
lhand -34.3974 10.1962
lfingers 7.12502
lthumb -7.56314 40.041
rfemur -79.0817 -13.2234 22.7019
rtibia 101.375
rfoot -0.967999 2.37764
rtoes 13.2872
lfemur -77.3959 13.4524 -19.2328
ltibia 99.8617
lfoot -2.12343 -10.6351
ltoes -6.09864
566
root 2.83979 9.75818 -4.56188 -19.0209 -49.1503 2.64473
lowerback 27.8471 1.79294 -4.58432
upperback 12.3468 0.516497 0.131442
thorax -1.60332 -0.20656 2.62821
lowerneck -14.0702 -4.87777 -13.0088
upperneck 27.3066 -4.34341 1.95679
head 11.6465 -3.14467 2.27769
rclavicle -6.98728e-014 4.59193e-014
rhumerus -23.8574 20.1189 -86.6891
rradius 94.0833
rwrist 39.4409
rhand -43.2171 15.8389
rfingers 7.12502
rthumb -16.0674 -13.515
lclavicle -6.98728e-014 4.59193e-014
lhumerus -23.8911 -24.8446 85.0911
lradius 92.8139
lwrist -23.1799
lhand -34.5991 10.2011
lfingers 7.12502
lthumb -7.75781 40.0387
rfemur -79.1169 -13.1789 22.5849
rtibia 101.342
rfoot -0.920379 2.32276
rtoes 13.0324
lfemur -77.3496 13.3966 -19.301
ltibia 99.8111
lfoot -2.09755 -10.5578
ltoes -5.8045
567
root 2.84303 9.76034 -4.56664 -19.0014 -49.1236 2.63958
lowerback 27.789 1.76965 -4.52111
upperback 12.3933 0.504313 0.120844
thorax -1.52368 -0.213022 2.58361
lowerneck -14.0725 -4.72966 -12.6993
upperneck 27.321 -4.09436 1.53678
head 11.614 -3.05393 2.10713
rclavicle -4.20927e-014 9.0447e-015
rhumerus -23.8654 20.0835 -86.6526
rradius 94.2091
rwrist 39.4084
rhand -43.1976 15.9893
rfingers 7.12502
rthumb -16.0486 -13.366
lclavicle -4.20927e-014 9.0447e-015
lhumerus -23.7947 -24.7065 84.9706
lradius 92.8422
lwrist -23.3913
lhand -34.3899 9.96498
lfingers 7.12502
lthumb -7.55596 39.81
rfemur -79.1302 -13.2259 22.6009
rtibia 101.29
rfoot -0.850969 2.35957
rtoes 13.2324
lfemur -77.3432 13.3054 -19.2778
ltibia 99.7554
lfoot -2.02291 -10.4748
ltoes -5.56318
568
root 2.84492 9.76133 -4.57067 -19.035 -49.0947 2.63787
lowerback 27.7604 1.75408 -4.48359
upperback 12.44 0.496171 0.16617
thorax -1.45763 -0.220275 2.61383
lowerneck -14.0784 -4.56198 -13.1641
upperneck 27.4327 -3.85877 1.97494
head 11.6604 -2.94775 2.38296
rclavicle -4.07012e-014 -4.07509e-015
rhumerus -23.8465 20.116 -86.4984
rradius 94.2847
rwrist 39.3647
rhand -43.1073 16.0036
rfingers 7.12502
rthumb -15.9617 -13.3588
lclavicle -4.07012e-014 -4.07509e-015
lhumerus -23.7707 -24.5336 85.0395
lradius 92.8407
lwrist -23.4694
lhand -34.3191 9.82944
lfingers 7.12502
lthumb -7.4876 39.6769
rfemur -79.0829 -13.3316 22.6368
rtibia 101.247
rfoot -0.796892 2.43945
rtoes 13.3798
lfemur -77.3253 13.3222 -19.3024
ltibia 99.7145
lfoot -1.99344 -10.4978
ltoes -5.80688
569
root 2.84644 9.76135 -4.5731 -19.1695 -49.076 2.75006
lowerback 27.7825 1.72312 -4.52301
upperback 12.461 0.445617 0.195625
thorax -1.44009 -0.24967 2.68278
lowerneck -14.0456 -4.27655 -13.4416
upperneck 27.5018 -3.44867 2.19115
head 11.655 -2.771 2.57181
rclavicle -2.33324e-014 -3.09607e-014
rhumerus -23.8339 20.2471 -86.3963
rradius 94.3515
rwrist 39.3047
rhand -42.9746 16.0444
rfingers 7.12502
rthumb -15.8339 -13.3281
lclavicle -2.33324e-014 -3.09607e-014
lhumerus -23.8249 -24.3102 85.1386
lradius 92.8102
lwrist -23.3573
lhand -34.4711 9.72177
lfingers 7.12502
lthumb -7.63429 39.564
rfemur -79.0924 -13.4308 22.6124
rtibia 101.236
rfoot -0.733443 2.52151
rtoes 12.731
lfemur -77.2378 13.3402 -19.3887
ltibia 99.6595
lfoot -2.00514 -10.5237
ltoes -6.01453
570
root 2.84918 9.76341 -4.57915 -19.0963 -49.1361 2.56415
lowerback 27.8165 1.7035 -4.33192
upperback 12.5143 0.465075 0.252791
thorax -1.39842 -0.237893 2.63042
lowerneck -13.8008 -4.0078 -13.3617
upperneck 27.1876 -3.09801 2.09838
head 11.448 -2.6054 2.57652
rclavicle -1.26228e-014 4.78574e-014
rhumerus -23.7638 20.2367 -86.3254
rradius 94.3904
rwrist 39.279
rhand -42.6903 16.2511
rfingers 7.12502
rthumb -15.5601 -13.1429
lclavicle -1.26228e-014 4.78574e-014
lhumerus -23.7537 -24.2555 85.1443
lradius 92.7555
lwrist -23.2973
lhand -34.6008 9.98056
lfingers 7.12502
lthumb -7.75949 39.8182
rfemur -78.9938 -13.4505 22.8044
rtibia 101.17
rfoot -0.722024 2.46741
rtoes 12.7059
lfemur -77.1389 13.3779 -19.2102
ltibia 99.6024
lfoot -1.95385 -10.5985
ltoes -6.0644
571
root 2.85143 9.76434 -4.58242 -19.0318 -49.143 2.44215
lowerback 27.7905 1.67747 -4.10947
upperback 12.5523 0.487305 0.260861
thorax -1.3466 -0.220212 2.50553
lowerneck -13.6786 -3.86455 -13.3369
upperneck 27.0744 -2.91807 2.09253
head 11.3625 -2.51861 2.59698
rclavicle -2.32702e-014 -1.85864e-014
rhumerus -23.7431 20.1302 -86.3392
rradius 94.3508
rwrist 39.2959
rhand -42.8237 16.1783
rfingers 7.12502
rthumb -15.6886 -13.2057
lclavicle -2.32702e-014 -1.85864e-014
lhumerus -23.6815 -24.3425 85.1483
lradius 92.6725
lwrist -23.2245
lhand -34.7305 10.0489
lfingers 7.12502
lthumb -7.88463 39.8819
rfemur -78.9287 -13.4863 22.9044
rtibia 101.114
rfoot -0.705788 2.47207
rtoes 12.8385
lfemur -77.0955 13.3626 -19.1037
ltibia 99.5517
lfoot -1.91966 -10.6067
ltoes -6.07704
572
root 2.85486 9.77025 -4.58881 -19.1458 -49.1271 2.50126
lowerback 27.815 1.71389 -4.03503
upperback 12.6239 0.546197 0.233685
thorax -1.28136 -0.191197 2.41644
lowerneck -13.848 -3.81917 -13.1395
upperneck 27.2287 -2.83747 1.95456
head 11.4419 -2.48435 2.52399
rclavicle 3.23025e-016 -1.03368e-014
rhumerus -23.7218 19.9808 -86.3263
rradius 94.443
rwrist 39.2404
rhand -42.8712 16.0893
rfingers 7.12502
rthumb -15.7343 -13.2911
lclavicle 3.23025e-016 -1.03368e-014
lhumerus -23.5293 -24.5606 85.1222
lradius 92.6689
lwrist -23.0524
lhand -34.765 10.3841
lfingers 7.12502
lthumb -7.918 40.2158
rfemur -78.7949 -13.5042 22.8408
rtibia 101.05
rfoot -0.688104 2.48696
rtoes 13.246
lfemur -76.9804 13.368 -19.1239
ltibia 99.4838
lfoot -1.92062 -10.6523
ltoes -6.29993
